<?xml version="1.0" standalone="no"?>
<svg viewBox="0 0 200 200" xmlns="http://www.w3.org/2000/svg">
  <path fill="#E9573F" d="M47.5,-64.6C58.8,-57.2,63.3,-39.6,67.4,-22.9C71.5,-6.1,75.2,9.7,70.1,22C65.1,34.3,51.3,43,38.2,53.8C25.1,64.6,12.5,77.5,-1.5,79.6C-15.6,81.7,-31.2,73.1,-41.2,61.3C-51.2,49.5,-55.5,34.5,-62.7,18.9C-69.9,3.2,-79.8,-13,-79,-28.8C-78.2,-44.7,-66.6,-60.2,-51.7,-66.5C-36.7,-72.8,-18.3,-69.7,-0.1,-69.6C18.1,-69.4,36.2,-72.1,47.5,-64.6Z" transform="translate(100 100)" />
</svg>
